<?xml version="1.0" standalone="no"?>
<!DOCTYPE svg PUBLIC "-//W3C//DTD SVG 20010904//EN"
 "http://www.w3.org/TR/2001/REC-SVG-20010904/DTD/svg10.dtd">
<svg version="1.0" xmlns="http://www.w3.org/2000/svg"
 width="902.000000pt" height="900.000000pt" viewBox="0 0 902.000000 900.000000"
 preserveAspectRatio="xMidYMid meet">

<g transform="translate(0.000000,900.000000) scale(0.100000,-0.100000)"
fill="#000000" stroke="none">
<path d="M4250 8974 c-268 -31 -384 -54 -585 -114 -625 -188 -1134 -552 -1559
-1113 -417 -551 -632 -1213 -612 -1887 12 -434 109 -862 292 -1293 236 -556
513 -962 1578 -2322 262 -334 1014 -1273 1060 -1322 34 -39 43 -43 84 -43 40
0 50 5 86 43 43 44 750 926 1037 1292 584 744 933 1207 1133 1502 411 606 645
1178 738 1806 26 175 31 588 10 757 -43 339 -132 638 -283 949 -157 324 -336
576 -603 849 -185 189 -317 301 -493 418 -290 192 -639 342 -968 416 -212 47
-330 59 -610 63 -148 2 -286 1 -305 -1z m645 -229 c122 -19 338 -68 420 -94
418 -132 772 -343 1083 -645 398 -387 657 -800 802 -1280 187 -623 144 -1303
-127 -1986 -196 -494 -428 -860 -1098 -1735 -428 -558 -1449 -1845 -1465
-1845 -9 0 -541 663 -971 1210 -521 663 -897 1161 -1096 1452 -388 567 -632
1153 -708 1698 -105 755 76 1471 523 2073 112 151 214 267 364 413 451 438
999 689 1653 758 94 10 523 -3 620 -19z"/>
<path d="M4305 7949 c-27 -4 -84 -13 -125 -19 -110 -16 -190 -37 -325 -82
-509 -171 -924 -535 -1162 -1019 -55 -111 -127 -302 -134 -354 -7 -45 10 -72
58 -95 40 -19 65 -23 153 -24 92 0 112 3 160 25 96 44 159 116 231 263 40 83
131 212 209 299 248 275 530 429 910 498 98 18 377 15 487 -5 487 -88 869
-370 1109 -819 70 -130 130 -197 211 -234 51 -23 71 -26 163 -26 84 0 114 5
153 21 74 33 77 52 28 202 -111 336 -327 659 -593 886 -288 245 -639 409 -993
463 -38 6 -100 15 -136 21 -77 12 -332 11 -404 -1z"/>
<path d="M4435 6994 c-97 -15 -254 -63 -330 -101 -311 -157 -512 -416 -581
-749 -23 -115 -15 -378 15 -489 53 -192 126 -320 261 -456 145 -147 300 -238
489 -285 78 -20 122 -24 231 -24 283 0 518 80 722 247 38 30 82 73 99 94 l31
39 -63 65 c-68 71 -157 123 -227 132 -36 5 -58 -3 -182 -65 -169 -85 -254
-107 -374 -99 -174 12 -296 65 -404 174 -79 81 -141 193 -161 291 -14 68 -14
256 0 324 28 136 149 316 262 389 128 83 323 119 450 84 34 -9 129 -48 211
-87 137 -65 152 -70 201 -66 76 6 158 51 232 125 35 36 63 70 63 78 0 20 -125
131 -220 193 -175 116 -370 179 -575 186 -66 2 -133 2 -150 0z"/>
<path d="M2670 5521 c-53 -11 -100 -39 -110 -66 -24 -64 120 -411 260 -623
294 -448 772 -767 1296 -866 156 -29 305 -46 399 -46 69 0 259 21 365 39 530
92 1018 414 1324 874 84 126 179 323 228 470 39 120 41 130 27 155 -27 49 -80
66 -209 66 -96 0 -123 -3 -161 -21 -88 -40 -139 -98 -219 -248 -80 -151 -152
-247 -280 -375 -208 -209 -425 -336 -692 -404 -155 -40 -248 -49 -438 -43
-256 7 -407 44 -635 157 -286 141 -513 368 -680 680 -100 185 -189 251 -350
256 -49 2 -106 -1 -125 -5z"/>
<path d="M5820 1710 c-16 -16 -20 -33 -20 -82 0 -35 4 -68 8 -75 4 -6 59 -30
122 -53 414 -151 650 -349 650 -545 0 -310 -590 -612 -1394 -715 -433 -55
-909 -55 -1342 0 -804 103 -1394 405 -1394 715 0 191 238 394 625 535 50 18
96 39 104 46 19 17 15 121 -5 152 -20 31 -45 28 -170 -18 -518 -191 -796 -485
-743 -785 52 -301 396 -554 976 -719 229 -66 542 -120 853 -147 174 -16 676
-16 850 0 533 47 965 151 1295 311 243 118 407 256 482 407 77 153 78 282 2
432 -105 211 -380 398 -777 530 -51 17 -95 31 -98 31 -2 0 -13 -9 -24 -20z"/>
</g>
</svg>
