<svg width="35" height="35" viewBox="0 0 35 35" fill="none" xmlns="http://www.w3.org/2000/svg">
<path d="M11.4844 19.25H14.7656V14H20.2344V19.25H23.5156V11.1562L17.5 7.9625L11.4844 11.1562V19.25ZM17.5 31.5437C22.349 28.0146 25.931 24.8135 28.2461 21.9406C30.5612 19.0677 31.7188 16.5375 31.7188 14.35C31.7188 10.9083 30.3424 8.09375 27.5898 5.90625C24.8372 3.71875 21.474 2.625 17.5 2.625C13.526 2.625 10.1628 3.71875 7.41016 5.90625C4.65755 8.09375 3.28125 10.9083 3.28125 14.35C3.28125 16.5375 4.46615 19.0677 6.83594 21.9406C9.20573 24.8135 12.7604 28.0146 17.5 31.5437ZM17.5 35C11.6302 31.0042 7.24609 27.2927 4.34766 23.8656C1.44922 20.4385 0 17.2667 0 14.35C0 9.975 1.75911 6.48958 5.27734 3.89375C8.79557 1.29792 12.8698 0 17.5 0C22.1302 0 26.2044 1.29792 29.7227 3.89375C33.2409 6.48958 35 9.975 35 14.35C35 17.2667 33.5508 20.4385 30.6523 23.8656C27.7539 27.2927 23.3698 31.0042 17.5 35Z" fill="black" fill-opacity="0.92"/>
</svg>
