<svg width="32" height="32" viewBox="0 0 32 32" fill="none" xmlns="http://www.w3.org/2000/svg">
<path d="M30.5 6C30.776 6 31 5.776 31 5.5V4.5C31 3.121 29.879 2 28.5 2H27.5C27.224 2 27 2.224 27 2.5C27 2.776 27.224 3 27.5 3H28.5C29.327 3 30 3.673 30 4.5V5.5C30 5.776 30.224 6 30.5 6Z" fill="white"/>
<path d="M1 27.5V26.5C1 26.224 1.224 26 1.5 26H22.5C22.776 26 23 26.224 23 26.5V27.5C23 28.327 23.673 29 24.5 29C24.776 29 25 29.224 25 29.5C25 29.776 24.776 30 24.5 30H3.5C2.121 30 1 28.879 1 27.5ZM22 27.5V27H2V27.5C2 28.327 2.673 29 3.5 29H22.501C22.187 28.582 22 28.063 22 27.5Z" fill="white"/>
<path d="M22.0115 18.01C21.8165 18.206 21.8165 18.522 22.0115 18.718L23.4255 20.132C23.6205 20.327 23.9375 20.327 24.1325 20.132C24.3275 19.937 24.3275 19.62 24.1325 19.425L22.7185 18.01C22.5225 17.814 22.2065 17.814 22.0115 18.01Z" fill="white"/>
<path d="M17 21C12.589 21 9 17.411 9 13C9 8.589 12.589 5 17 5C18.66 5 20.252 5.504 21.605 6.458C21.831 6.616 21.885 6.929 21.726 7.154C21.567 7.38 21.254 7.435 21.029 7.274C19.846 6.44 18.453 6 17 6C13.14 6 10 9.141 10 13C10 16.859 13.14 20 17 20C20.86 20 24 16.859 24 13C24 12.281 23.892 11.573 23.678 10.895C23.595 10.631 23.741 10.35 24.005 10.268C24.269 10.187 24.549 10.331 24.632 10.594C24.876 11.37 25 12.18 25 13C25 17.411 21.411 21 17 21Z" fill="white"/>
<path d="M25 20C25.256 20 25.512 20.098 25.707 20.293L29.707 24.293C30.098 24.684 30.098 25.316 29.707 25.707C29.512 25.902 29.256 26 29 26C28.744 26 28.488 25.902 28.293 25.707L24.293 21.707C23.902 21.316 23.902 20.684 24.293 20.293C24.488 20.098 24.744 20 25 20ZM25 19C24.466 19 23.964 19.208 23.586 19.586C23.208 19.964 23 20.466 23 21C23 21.534 23.208 22.036 23.586 22.414L27.586 26.414C27.964 26.792 28.466 27 29 27C29.534 27 30.036 26.792 30.414 26.414C30.792 26.036 31 25.534 31 25C31 24.466 30.792 23.964 30.414 23.586L26.414 19.586C26.036 19.208 25.534 19 25 19Z" fill="white"/>
<path d="M16.5002 16C16.4962 16 16.4922 16 16.4882 16C16.3432 15.996 16.2082 15.931 16.1152 15.82L13.6152 12.82C13.4392 12.607 13.4682 12.292 13.6792 12.115C13.8922 11.939 14.2062 11.968 14.3842 12.179L16.5172 14.74L23.6312 7.162C23.8192 6.958 24.1352 6.946 24.3372 7.131C24.5402 7.318 24.5542 7.634 24.3672 7.838L16.8682 15.838C16.7732 15.941 16.6412 16 16.5002 16Z" fill="white"/>
<path d="M28.5 3C28.776 3 29 2.776 29 2.5C29 2.224 28.776 2 28.5 2H8.5C7.121 2 6 3.121 6 4.5V24.5C6 24.776 6.224 25 6.5 25C6.776 25 7 24.776 7 24.5V4.5C7 3.673 7.673 3 8.5 3H26.501C26.187 3.418 26 3.938 26 4.5V17.5C26 17.776 26.224 18 26.5 18C26.776 18 27 17.776 27 17.5V4.5C27 3.673 27.673 3 28.5 3Z" fill="white"/>
<path d="M24.5 29H22.75V30H24.5C25.879 30 27 28.879 27 27.5C27 27.224 26.776 27 26.5 27C26.224 27 26 27.224 26 27.5C26 28.327 25.327 29 24.5 29Z" fill="white"/>
</svg>
