<?xml version="1.0" standalone="no"?>
<!DOCTYPE svg PUBLIC "-//W3C//DTD SVG 20010904//EN"
 "http://www.w3.org/TR/2001/REC-SVG-20010904/DTD/svg10.dtd">
<svg version="1.0" xmlns="http://www.w3.org/2000/svg"
 width="2000.000000pt" height="2000.000000pt" viewBox="0 0 2000.000000 2000.000000"
 preserveAspectRatio="xMidYMid meet">

<g transform="translate(0.000000,2000.000000) scale(0.100000,-0.100000)"
fill="#000000" stroke="none">
<path d="M6715 19610 c-66 -4 -176 -8 -245 -9 -144 -2 -197 -12 -400 -81 -125
-42 -163 -50 -275 -60 -152 -13 -218 -29 -300 -75 -77 -42 -108 -51 -230 -69
-87 -13 -114 -22 -205 -69 -74 -39 -133 -61 -201 -76 -77 -18 -112 -32 -175
-72 -44 -27 -97 -54 -119 -60 -99 -25 -144 -43 -207 -84 -36 -24 -102 -58
-146 -75 -44 -17 -104 -48 -135 -70 -30 -22 -90 -55 -133 -75 -43 -20 -101
-53 -129 -74 -27 -21 -83 -56 -124 -76 -80 -40 -249 -154 -319 -216 -24 -21
-69 -52 -100 -70 -50 -28 -156 -110 -342 -265 -30 -25 -85 -71 -123 -101 -76
-63 -698 -690 -773 -780 -26 -32 -78 -90 -114 -128 -77 -83 -214 -270 -366
-500 -37 -55 -77 -112 -90 -127 -12 -15 -37 -58 -54 -95 -18 -37 -51 -94 -75
-128 -23 -33 -59 -91 -79 -130 -20 -38 -56 -98 -80 -131 -24 -34 -54 -95 -68
-135 -14 -41 -44 -103 -66 -137 -23 -36 -55 -107 -72 -160 -17 -54 -42 -113
-55 -132 -44 -68 -72 -136 -94 -223 -13 -52 -42 -129 -71 -185 -40 -78 -55
-122 -76 -222 -18 -89 -38 -152 -69 -217 -48 -102 -61 -154 -70 -288 -5 -71
-16 -121 -55 -235 -77 -226 -69 -162 -100 -880 -6 -162 -15 -249 -29 -310 -18
-76 -20 -109 -15 -324 3 -158 10 -262 20 -305 8 -37 19 -166 24 -291 29 -677
27 -667 113 -903 25 -71 37 -123 42 -185 10 -147 23 -201 70 -303 33 -70 53
-132 71 -221 20 -96 36 -144 74 -219 26 -53 60 -140 74 -194 18 -66 42 -124
71 -174 25 -41 56 -111 71 -155 29 -92 39 -111 86 -182 19 -27 42 -77 52 -110
24 -76 49 -126 96 -189 21 -27 52 -80 68 -117 17 -37 50 -95 75 -130 24 -35
55 -83 67 -108 12 -25 39 -67 59 -95 21 -27 50 -72 66 -100 16 -27 56 -86 90
-130 33 -44 69 -93 79 -110 39 -61 185 -251 216 -280 18 -16 74 -79 125 -140
100 -119 731 -750 805 -805 25 -19 81 -68 125 -109 45 -42 119 -104 165 -139
143 -105 232 -169 294 -209 32 -21 93 -61 135 -89 43 -29 106 -66 142 -84 35
-18 84 -47 109 -65 25 -18 79 -49 120 -70 41 -20 99 -55 127 -77 31 -23 91
-54 142 -72 48 -18 119 -53 157 -78 42 -28 102 -56 154 -72 49 -15 114 -45
153 -71 43 -27 90 -48 125 -56 137 -28 182 -44 269 -90 81 -44 104 -51 200
-65 108 -16 143 -28 286 -105 50 -27 72 -31 180 -40 155 -11 207 -22 337 -70
191 -69 185 -69 675 -84 280 -9 486 -20 545 -30 123 -19 295 -19 390 0 53 11
212 20 535 30 497 15 498 15 663 79 124 48 202 65 343 76 148 11 158 14 275
73 60 30 115 50 160 57 38 6 96 16 129 21 40 7 83 24 130 53 85 52 102 58 233
90 75 18 125 38 180 70 43 25 110 57 151 71 41 15 106 47 145 71 39 24 102 56
141 70 38 15 99 46 135 70 83 55 137 74 214 74 121 0 102 14 525 -408 212
-213 408 -416 436 -452 27 -36 808 -823 1735 -1750 1304 -1303 1699 -1704
1744 -1767 40 -58 170 -194 454 -475 218 -217 424 -419 457 -450 91 -84 268
-214 344 -253 38 -18 82 -45 99 -60 48 -40 109 -63 217 -79 60 -9 138 -29 195
-52 164 -63 265 -84 409 -84 142 0 211 14 406 80 66 22 162 47 214 56 97 16
151 37 211 84 19 15 68 44 109 64 167 82 386 272 491 426 32 47 72 103 90 125
18 22 43 63 57 90 14 28 43 76 64 107 52 75 58 93 75 222 9 62 37 180 66 275
80 263 78 363 -13 666 -22 72 -48 178 -58 236 -19 108 -32 142 -81 214 -14 22
-40 69 -57 105 -16 36 -66 110 -110 165 -91 115 -2902 2934 -2998 3007 -33 25
-553 537 -1155 1138 -602 601 -1132 1126 -1177 1167 -103 94 -117 125 -111
250 4 96 20 140 82 225 19 26 42 69 51 95 25 69 60 140 100 202 20 32 41 84
52 130 13 58 30 94 69 151 55 81 67 111 84 210 8 44 28 96 61 158 41 76 55
115 75 215 17 84 40 157 74 232 48 110 63 174 75 320 12 143 36 233 110 430
26 68 27 80 38 395 11 344 10 1066 -3 1640 l-7 345 -51 150 c-57 167 -77 249
-87 345 -14 146 -28 208 -77 323 -33 78 -56 154 -69 225 -15 81 -32 132 -70
210 -27 57 -58 141 -69 188 -24 104 -38 137 -84 206 -21 30 -49 94 -66 148
-18 60 -46 120 -74 163 -25 37 -52 91 -62 120 -21 64 -59 142 -90 182 -12 17
-38 64 -57 105 -19 41 -54 101 -79 132 -25 31 -57 88 -73 125 -28 67 -143 245
-216 333 -20 25 -49 65 -65 90 -16 25 -63 91 -104 145 -41 55 -92 125 -115
155 -22 30 -72 88 -111 130 -39 41 -87 98 -108 125 -53 71 -550 569 -616 618
-30 22 -84 68 -120 102 -61 57 -233 191 -424 330 -46 33 -107 78 -137 101
-128 96 -228 164 -289 194 -36 18 -91 52 -122 75 -31 23 -91 57 -133 74 -41
18 -103 49 -136 71 -33 21 -81 46 -107 56 -86 31 -148 61 -200 97 -29 19 -75
43 -104 53 -62 20 -113 44 -188 90 -32 19 -97 44 -155 60 -65 17 -135 45 -201
80 -96 51 -109 55 -234 73 -121 17 -141 23 -234 70 -84 43 -115 53 -186 61
-47 6 -123 15 -170 21 -55 6 -144 30 -250 66 l-165 57 -215 8 c-286 11 -1633
17 -1785 8z m1740 -954 c113 -17 154 -29 277 -80 70 -29 107 -38 195 -46 145
-13 193 -25 288 -70 115 -56 128 -60 254 -81 99 -17 126 -26 215 -73 65 -35
136 -64 201 -81 70 -18 118 -38 163 -67 35 -23 102 -56 149 -75 47 -19 111
-51 142 -72 31 -21 94 -57 141 -81 47 -23 103 -55 125 -70 22 -15 72 -43 110
-63 39 -19 95 -55 125 -79 30 -25 84 -62 118 -82 76 -43 261 -175 318 -225 22
-20 78 -66 125 -103 285 -228 586 -521 801 -778 53 -63 126 -149 162 -190 36
-41 82 -101 103 -133 110 -167 210 -311 266 -381 21 -28 52 -76 68 -108 16
-31 49 -88 73 -125 24 -37 53 -90 65 -118 12 -27 45 -85 73 -127 27 -43 65
-118 83 -168 18 -49 52 -121 75 -161 29 -47 53 -105 72 -177 21 -75 41 -126
70 -169 50 -77 63 -116 78 -221 13 -95 24 -132 73 -228 48 -95 64 -158 77
-296 8 -87 19 -143 45 -219 43 -126 83 -317 95 -453 13 -137 12 -1393 0 -1534
-13 -141 -40 -271 -91 -423 -29 -90 -41 -146 -49 -236 -14 -150 -21 -177 -75
-293 -25 -52 -52 -129 -60 -170 -8 -41 -20 -101 -26 -133 -8 -38 -30 -88 -61
-140 -35 -57 -56 -106 -69 -162 -32 -136 -37 -150 -81 -216 -23 -35 -58 -105
-78 -154 -20 -50 -55 -118 -78 -151 -23 -34 -54 -88 -68 -120 -14 -33 -43 -84
-63 -114 -21 -30 -57 -92 -80 -136 -23 -45 -57 -99 -76 -121 -18 -22 -50 -68
-71 -104 -21 -35 -58 -91 -83 -125 -25 -33 -70 -94 -99 -135 -78 -109 -148
-198 -196 -249 -24 -25 -64 -74 -91 -108 -61 -82 -499 -519 -601 -602 -44 -35
-106 -89 -140 -119 -109 -100 -286 -231 -454 -337 -41 -26 -100 -68 -130 -92
-30 -24 -93 -64 -140 -88 -47 -24 -110 -61 -140 -82 -30 -22 -80 -49 -110 -61
-30 -12 -84 -43 -120 -67 -36 -24 -104 -59 -150 -78 -47 -18 -114 -52 -150
-75 -35 -23 -89 -49 -120 -57 -149 -41 -190 -57 -244 -93 -60 -40 -120 -60
-251 -82 -48 -8 -99 -27 -160 -60 -112 -59 -136 -65 -318 -84 -147 -15 -180
-24 -335 -90 -35 -14 -87 -31 -115 -37 -76 -15 -1529 -22 -1792 -9 -227 12
-268 19 -390 73 -93 41 -144 52 -309 68 -151 15 -205 29 -313 84 -67 35 -111
49 -183 61 -101 18 -153 37 -233 86 -27 16 -86 41 -130 55 -96 29 -139 49
-225 103 -35 22 -98 50 -139 62 -47 14 -99 40 -141 69 -37 25 -103 63 -147 84
-44 20 -94 48 -112 62 -17 13 -67 42 -111 64 -43 21 -102 57 -131 80 -28 23
-75 55 -104 73 -100 61 -416 298 -522 391 -114 101 -608 590 -731 724 -57 62
-131 148 -163 190 -33 42 -96 124 -141 182 -45 58 -98 134 -118 170 -19 36
-54 88 -78 115 -23 28 -63 92 -88 144 -25 51 -54 104 -65 119 -10 15 -34 59
-54 97 -19 39 -60 104 -91 145 -44 59 -62 96 -86 170 -16 52 -44 118 -61 145
-39 62 -60 111 -83 195 -10 36 -40 107 -68 157 -39 74 -54 116 -73 207 -18 85
-36 137 -71 207 -59 118 -71 164 -84 314 -8 88 -19 143 -41 205 -56 156 -78
230 -91 308 -10 59 -13 282 -13 952 0 982 0 987 67 1160 55 146 65 186 78 319
14 152 30 212 83 318 44 87 56 129 77 253 8 43 28 96 60 157 27 50 61 131 75
180 18 57 44 115 77 165 32 50 60 109 79 170 20 66 41 110 70 148 23 30 57 89
77 130 19 41 52 101 73 132 22 31 54 90 73 131 18 41 49 92 69 113 19 22 87
117 151 212 119 176 198 278 315 411 109 123 580 597 661 664 41 34 108 94
150 133 123 115 191 169 271 217 42 24 107 68 143 96 37 28 76 56 88 62 12 6
49 32 82 56 34 25 86 58 117 73 31 16 85 49 122 74 36 24 99 59 141 76 42 18
109 53 149 79 39 26 104 60 142 74 39 15 103 47 143 72 48 30 105 54 165 71
116 32 128 37 207 85 63 37 113 52 259 79 41 7 102 31 170 66 106 55 107 55
231 65 196 15 241 24 337 67 103 47 204 70 354 81 57 5 457 7 889 6 646 -3
803 -6 885 -19z m4820 -10804 c22 -11 68 -51 102 -90 108 -121 427 -437 497
-492 97 -76 111 -107 111 -250 0 -138 -14 -173 -97 -241 -51 -41 -605 -594
-698 -695 -54 -59 -95 -74 -207 -74 -128 0 -155 14 -270 138 -150 162 -410
419 -481 475 -92 72 -107 106 -107 242 0 140 18 178 117 245 97 66 576 542
631 627 55 85 83 111 138 129 64 21 212 13 264 -14z m1631 -1642 c28 -14 189
-169 510 -494 258 -260 530 -527 604 -592 153 -135 2344 -2321 2407 -2401 47
-60 74 -125 109 -262 28 -110 30 -182 8 -312 -29 -174 -70 -261 -137 -295 -46
-24 -123 -21 -177 6 -33 16 -568 545 -1947 1924 -1739 1739 -1903 1905 -1913
1945 -17 63 2 128 58 204 56 76 234 251 282 277 49 26 141 26 196 0z"/>
<path d="M6922 17840 c-24 -5 -94 -27 -157 -49 -144 -51 -242 -69 -431 -81
-167 -11 -218 -23 -341 -82 -47 -22 -118 -46 -161 -54 -161 -31 -208 -45 -274
-85 -39 -24 -106 -52 -155 -66 -96 -27 -115 -36 -190 -86 -29 -19 -88 -47
-131 -61 -47 -16 -104 -45 -139 -71 -34 -24 -94 -60 -134 -81 -41 -20 -90 -49
-109 -64 -19 -15 -72 -46 -118 -69 -45 -23 -99 -56 -120 -75 -20 -18 -71 -58
-112 -89 -210 -156 -269 -204 -349 -278 -47 -45 -113 -100 -146 -122 -82 -56
-207 -177 -273 -267 -31 -41 -95 -115 -142 -165 -47 -49 -108 -123 -134 -164
-26 -40 -98 -137 -160 -215 -62 -77 -123 -161 -136 -186 -13 -25 -45 -77 -71
-117 -27 -39 -60 -96 -73 -126 -13 -31 -43 -83 -66 -117 -23 -35 -59 -105 -80
-156 -21 -52 -56 -122 -78 -156 -28 -43 -49 -93 -66 -157 -14 -51 -37 -114
-51 -140 -52 -93 -66 -133 -89 -244 -18 -87 -35 -134 -75 -213 -49 -94 -53
-108 -62 -205 -23 -260 -29 -291 -78 -438 -30 -88 -54 -182 -61 -236 -8 -63
-10 -269 -8 -690 5 -670 0 -622 82 -850 35 -98 40 -127 65 -390 9 -90 15 -109
60 -200 40 -80 54 -122 70 -210 17 -90 31 -130 75 -220 30 -60 65 -147 77
-193 14 -56 36 -104 65 -150 24 -36 58 -103 75 -147 17 -44 51 -110 75 -148
24 -37 61 -100 81 -140 19 -40 46 -85 59 -102 12 -17 43 -67 68 -113 42 -76
69 -112 198 -271 25 -32 67 -91 94 -132 26 -41 78 -108 116 -149 39 -41 103
-115 143 -165 117 -144 467 -464 619 -566 39 -25 127 -92 196 -148 69 -55 148
-112 175 -127 28 -15 77 -45 110 -67 32 -22 93 -56 135 -75 41 -20 109 -59
151 -88 42 -28 101 -60 130 -69 66 -22 118 -47 184 -91 28 -19 91 -45 140 -60
50 -14 127 -46 173 -71 67 -36 107 -49 203 -69 79 -15 155 -39 222 -68 134
-58 163 -65 317 -76 140 -10 171 -16 296 -60 45 -16 140 -40 210 -55 l129 -26
561 0 561 0 139 45 c179 57 253 72 454 91 198 19 256 32 380 90 67 31 127 50
205 64 91 17 122 28 188 66 54 32 108 54 174 70 63 15 114 35 152 59 55 36 69
43 201 105 36 17 89 48 119 69 29 21 76 47 103 57 28 10 92 45 143 79 52 34
120 78 152 99 89 58 187 129 256 185 34 28 123 100 197 159 151 121 577 548
697 698 39 50 100 125 135 169 112 139 189 249 225 321 19 39 57 100 84 136
27 37 63 99 79 139 16 39 49 98 74 130 24 33 58 97 75 142 18 46 49 112 71
148 21 36 50 106 65 155 15 50 49 131 75 181 35 66 51 110 59 165 21 130 41
202 78 269 54 98 63 132 73 279 10 148 28 245 93 506 l42 170 0 505 0 505 -47
190 c-69 275 -78 325 -88 480 -11 164 -13 173 -74 290 -39 77 -49 108 -67 214
-20 122 -29 146 -95 258 -14 24 -37 84 -50 135 -17 62 -38 114 -65 155 -22 34
-55 99 -73 145 -18 45 -53 115 -78 153 -24 39 -56 102 -71 141 -15 39 -46 96
-68 125 -22 30 -57 86 -76 124 -38 75 -147 227 -222 311 -65 71 -157 185 -218
268 -53 74 -451 474 -583 587 -111 96 -309 252 -355 281 -22 14 -60 42 -85 63
-24 20 -75 52 -112 71 -38 19 -96 54 -128 78 -33 24 -91 56 -130 71 -39 15
-92 44 -118 64 -66 51 -88 64 -165 94 -37 15 -86 39 -108 53 -51 32 -74 41
-182 70 -49 13 -130 46 -180 73 -67 36 -118 55 -187 70 -112 24 -155 38 -236
79 -92 47 -156 61 -321 72 -182 12 -294 35 -451 92 l-117 43 -570 1 c-313 1
-589 -2 -613 -6z m961 -946 c54 -7 130 -25 170 -40 159 -57 193 -65 327 -75
192 -13 242 -25 355 -80 70 -34 130 -55 200 -70 105 -22 142 -36 240 -94 33
-19 97 -47 141 -60 48 -15 110 -44 150 -71 38 -25 101 -60 140 -78 40 -19 96
-52 125 -74 30 -22 88 -55 129 -75 41 -19 99 -55 128 -80 29 -25 67 -56 85
-68 17 -13 57 -44 87 -69 30 -25 84 -67 120 -92 78 -56 543 -522 590 -593 19
-27 55 -74 81 -103 50 -55 195 -262 243 -347 16 -27 46 -73 67 -101 21 -28 55
-86 75 -130 20 -43 55 -105 76 -137 22 -32 53 -98 69 -145 16 -48 49 -121 72
-162 55 -95 62 -114 86 -228 13 -59 36 -124 61 -174 56 -108 76 -196 85 -362
6 -117 14 -168 50 -310 24 -94 51 -191 61 -216 14 -37 18 -89 22 -306 4 -280
-2 -352 -43 -489 -56 -190 -85 -340 -95 -490 -11 -167 -25 -225 -81 -337 -26
-52 -47 -115 -63 -193 -20 -95 -34 -131 -74 -203 -28 -48 -60 -117 -71 -153
-12 -37 -40 -96 -62 -130 -22 -35 -58 -102 -80 -149 -23 -47 -58 -108 -80
-137 -21 -28 -56 -89 -77 -135 -22 -46 -57 -103 -79 -128 -88 -99 -200 -238
-232 -285 -48 -71 -534 -559 -606 -607 -33 -23 -82 -60 -110 -83 -154 -129
-238 -191 -310 -227 -44 -22 -103 -58 -132 -80 -28 -22 -85 -53 -125 -70 -40
-17 -91 -43 -113 -58 -51 -35 -110 -65 -177 -90 -29 -11 -91 -42 -138 -70 -46
-27 -107 -54 -135 -60 -27 -6 -84 -17 -125 -25 -48 -10 -113 -34 -185 -70
-119 -59 -183 -75 -315 -75 -111 -1 -213 -23 -321 -69 -134 -57 -214 -64 -657
-58 -379 5 -379 5 -525 60 -87 34 -183 53 -332 67 -173 16 -219 27 -323 77
-51 24 -130 53 -175 64 -156 38 -170 43 -221 77 -75 50 -113 67 -195 87 -55
13 -93 31 -150 70 -42 29 -97 63 -121 75 -25 13 -78 45 -119 72 -40 28 -97 61
-127 74 -29 13 -77 45 -107 72 -29 27 -76 64 -103 82 -27 19 -105 79 -172 135
-68 55 -156 122 -195 148 -97 65 -239 206 -295 292 -25 39 -71 100 -101 136
-31 37 -81 97 -113 135 -31 38 -86 105 -122 149 -36 44 -78 102 -94 129 -15
27 -51 85 -80 130 -30 45 -69 112 -88 149 -19 37 -54 96 -78 131 -28 41 -55
99 -75 162 -18 55 -49 128 -70 164 -45 76 -55 106 -81 221 -10 49 -36 121 -58
166 -52 103 -69 163 -82 298 -20 195 -39 290 -81 406 l-42 114 -6 240 c-3 132
-3 339 0 460 l6 220 41 120 c53 155 59 182 77 379 16 178 25 211 85 331 27 53
49 118 65 195 22 100 32 124 76 191 36 56 58 105 78 173 19 66 42 117 73 164
25 37 53 83 63 102 9 19 39 67 65 105 26 39 64 104 84 144 21 40 54 91 75 114
21 23 66 80 100 126 35 47 98 125 141 176 42 50 104 129 137 175 70 99 183
209 315 309 51 39 134 105 183 146 50 42 117 94 150 117 33 23 87 63 119 90
33 27 82 61 110 75 28 14 77 44 109 65 33 22 101 59 152 83 51 24 119 61 151
83 33 22 93 52 134 66 41 15 109 49 150 75 83 54 107 63 229 86 47 8 121 31
165 51 138 61 187 75 301 84 218 20 275 30 383 71 58 22 144 46 191 53 122 18
645 19 774 0z"/>
<path d="M7303 15960 c-57 -12 -92 -32 -134 -77 -106 -111 -141 -326 -87 -535
38 -144 44 -151 189 -230 214 -116 290 -115 487 10 115 72 127 88 162 213 44
158 44 254 0 401 -16 53 -32 79 -75 127 -81 87 -104 94 -320 97 -99 2 -199 -1
-222 -6z"/>
<path d="M5483 15370 c-23 -5 -56 -16 -73 -25 -113 -59 -481 -413 -694 -668
-26 -31 -70 -97 -98 -145 -28 -48 -63 -103 -78 -122 -15 -19 -42 -64 -60 -100
-18 -36 -51 -92 -74 -125 -22 -33 -57 -101 -77 -152 -20 -50 -51 -112 -69
-137 -44 -65 -57 -99 -75 -207 -12 -69 -29 -122 -65 -199 -59 -126 -66 -164
-80 -435 -6 -115 -18 -255 -26 -310 -27 -181 -27 -196 -4 -336 39 -235 67
-278 215 -326 144 -46 314 -44 481 8 89 27 117 56 179 179 78 156 82 177 90
469 7 319 19 392 85 531 28 58 61 146 75 195 17 59 39 109 64 145 21 30 55 87
76 125 21 39 55 93 75 120 21 28 52 78 70 110 69 124 279 355 445 489 128 103
221 201 253 266 26 53 27 62 27 210 0 140 -2 159 -22 200 -33 67 -179 213
-228 229 -49 15 -353 24 -412 11z"/>
</g>
</svg>
